<svg width="14" height="14" viewBox="0 0 14 14" fill="none" xmlns="http://www.w3.org/2000/svg">
<path d="M13.6312 5.11933C13.5452 4.86733 13.3178 4.68933 13.0525 4.66866L9.25182 4.36666L7.60716 0.725995C7.49982 0.486662 7.26182 0.333328 6.99982 0.333328C6.73782 0.333328 6.49982 0.486662 6.39249 0.725328L4.74782 4.36666L0.947157 4.66866C0.68649 4.68933 0.461823 4.86066 0.373156 5.10666C0.28449 5.35266 0.347157 5.62799 0.53449 5.81066L3.34316 8.54866L2.34982 12.85C2.28849 13.116 2.39582 13.3927 2.62049 13.548C2.73516 13.6267 2.86716 13.6667 2.99982 13.6667C3.12849 13.6667 3.25782 13.6293 3.36982 13.5547L6.99982 11.1347L10.6298 13.5547C10.8618 13.7093 11.1665 13.7033 11.3932 13.5387C11.6185 13.374 11.7178 13.0853 11.6412 12.8173L10.4218 8.55066L13.4458 5.82933C13.6438 5.65066 13.7165 5.372 13.6312 5.11933Z" fill="#FFBA08"/>
</svg>
