<?xml version="1.0" standalone="no"?>
<!DOCTYPE svg PUBLIC "-//W3C//DTD SVG 20010904//EN"
 "http://www.w3.org/TR/2001/REC-SVG-20010904/DTD/svg10.dtd">
<svg version="1.0" xmlns="http://www.w3.org/2000/svg"
 width="752.000000pt" height="752.000000pt" viewBox="0 0 752.000000 752.000000"
 preserveAspectRatio="xMidYMid meet">
<metadata>
Created by potrace 1.14, written by Peter Selinger 2001-2017
</metadata>
<g transform="translate(0.000000,752.000000) scale(0.100000,-0.100000)"
fill="#000000" stroke="none">
<path d="M3656 7265 c-8 -8 -17 -15 -19 -15 -6 0 -167 -105 -184 -120 -7 -5
-17 -10 -23 -10 -5 0 -10 -4 -10 -10 0 -5 -5 -10 -12 -10 -6 0 -25 -11 -42
-23 -17 -13 -36 -26 -41 -28 -12 -5 -188 -121 -195 -128 -3 -3 -21 -15 -40
-25 -19 -11 -37 -22 -40 -26 -3 -3 -23 -17 -45 -30 -22 -13 -42 -27 -45 -30
-3 -3 -17 -11 -32 -17 -16 -7 -28 -17 -28 -23 0 -5 -5 -10 -10 -10 -9 0 -87
-47 -100 -60 -3 -3 -34 -23 -70 -45 -36 -21 -69 -43 -75 -47 -26 -22 -286
-188 -294 -188 -5 0 -11 -4 -13 -8 -1 -5 -34 -29 -73 -53 -38 -24 -71 -47 -73
-51 -2 -4 -8 -8 -13 -8 -5 0 -38 -20 -75 -45 -36 -25 -66 -45 -68 -45 -3 0
-288 -186 -301 -197 -5 -4 -22 -14 -37 -22 -15 -8 -37 -23 -48 -33 -11 -10
-20 -17 -20 -15 0 5 -304 -193 -335 -217 -10 -9 -25 -16 -31 -16 -7 0 -14 -3
-16 -7 -5 -12 -66 -53 -78 -53 -5 0 -10 -5 -10 -11 0 -5 -4 -8 -9 -5 -5 3 -11
-1 -15 -9 -3 -8 -10 -15 -15 -15 -6 0 -63 -35 -128 -78 -65 -43 -156 -103
-203 -133 -47 -29 -86 -57 -88 -61 -2 -5 -10 -8 -17 -8 -8 0 -20 -10 -26 -22
-12 -22 -48 -144 -73 -243 -1 -5 -7 -26 -13 -45 -20 -66 -45 -149 -47 -162 -4
-17 -35 -123 -52 -175 -7 -23 -16 -52 -18 -65 -3 -13 -23 -86 -46 -163 -23
-77 -43 -147 -45 -155 -2 -8 -24 -87 -50 -175 -25 -88 -48 -170 -51 -183 -2
-13 -11 -42 -18 -65 -8 -23 -22 -69 -32 -102 -9 -33 -19 -64 -20 -70 -2 -5 -8
-26 -13 -45 -5 -19 -17 -62 -26 -95 -10 -33 -21 -73 -25 -90 -4 -16 -15 -51
-23 -77 -8 -27 -13 -48 -10 -48 3 0 1 -6 -4 -12 -8 -11 -23 -59 -39 -130 -1
-5 -2 -9 -4 -10 -1 -2 -3 -10 -5 -18 -3 -8 -13 -46 -23 -85 -19 -68 -19 -71
-1 -95 18 -25 56 -71 82 -100 7 -8 67 -80 132 -160 66 -80 122 -147 125 -150
3 -3 37 -43 75 -90 38 -47 74 -90 80 -96 5 -6 21 -25 35 -43 14 -18 34 -43 45
-55 11 -11 31 -34 43 -51 13 -16 38 -46 56 -65 17 -19 38 -44 46 -56 13 -19
88 -108 115 -138 6 -6 39 -47 74 -91 36 -44 72 -87 80 -96 9 -8 27 -30 41 -48
14 -18 30 -38 35 -44 6 -7 35 -41 64 -77 30 -36 57 -67 60 -70 3 -3 24 -27 46
-55 48 -60 64 -80 88 -108 11 -12 33 -39 50 -61 18 -21 37 -43 42 -50 6 -6 53
-63 105 -126 52 -63 97 -117 100 -120 3 -3 59 -70 125 -150 66 -80 124 -150
130 -156 5 -6 25 -29 42 -51 25 -30 41 -40 65 -41 18 -1 44 -4 58 -7 24 -5 59
-11 130 -20 19 -3 53 -8 75 -11 22 -4 54 -8 70 -9 17 -2 46 -6 66 -9 20 -4 51
-8 70 -11 32 -3 92 -11 169 -20 19 -3 49 -7 65 -10 66 -11 92 -15 135 -20 69
-8 122 -15 150 -20 14 -2 48 -7 75 -10 28 -4 66 -8 85 -11 19 -2 46 -6 60 -9
28 -6 82 -13 150 -20 25 -3 56 -7 70 -10 14 -3 44 -7 67 -10 23 -3 57 -7 75
-10 30 -4 117 -16 223 -30 23 -3 52 -8 65 -10 14 -3 48 -7 75 -10 28 -3 61 -7
75 -10 14 -3 45 -7 69 -10 23 -3 55 -7 70 -9 14 -3 46 -7 71 -10 48 -6 97 -12
158 -22 20 -3 53 -7 72 -9 19 -2 47 -6 61 -8 15 -3 53 -8 85 -12 33 -4 70 -9
84 -12 14 -2 41 -6 60 -8 19 -2 55 -6 80 -9 25 -3 45 -6 45 -7 0 -1 9 -3 20
-4 11 -1 40 -5 65 -8 l45 -6 70 80 c39 44 81 93 95 108 14 15 48 54 75 86 28
31 61 69 75 84 14 15 54 60 90 100 36 41 76 86 90 101 14 15 46 52 72 82 26
30 58 66 70 80 13 13 50 55 83 93 33 37 71 80 85 95 14 15 50 56 80 91 51 59
98 111 145 162 11 12 67 76 125 142 58 65 112 126 120 135 8 9 40 44 70 79 30
34 64 73 75 85 11 13 36 40 55 62 20 21 71 80 115 129 44 50 82 92 85 95 3 3
31 35 62 72 31 36 59 64 62 60 3 -3 6 0 6 6 0 7 18 31 39 53 22 23 37 47 35
54 -3 7 8 52 24 101 16 49 60 184 97 299 96 302 146 458 152 475 3 8 7 20 8
25 2 6 26 82 55 170 28 88 53 165 54 170 2 6 5 17 9 25 10 28 119 372 122 389
2 9 14 43 25 76 12 33 24 67 25 75 2 8 19 63 39 122 31 96 36 141 17 158 -10
8 -191 375 -191 387 0 6 -3 13 -7 15 -5 2 -118 224 -253 493 -134 270 -248
492 -252 493 -5 2 -6 7 -3 12 8 13 -27 36 -110 73 -91 39 -167 74 -273 123
-41 19 -80 34 -88 34 -8 0 -14 5 -14 10 0 6 -4 10 -10 10 -5 0 -35 12 -67 26
-32 14 -71 32 -88 39 -37 16 -138 62 -185 84 -19 8 -37 16 -40 16 -3 1 -30 13
-60 27 -30 15 -116 53 -190 86 -136 60 -202 90 -295 133 -27 13 -52 24 -55 24
-5 2 -51 22 -140 62 -19 9 -72 33 -118 55 -45 21 -85 38 -88 38 -3 0 -48 20
-101 45 -52 25 -97 45 -99 45 -2 0 -34 14 -71 31 -38 17 -106 48 -153 69 -47
21 -120 54 -163 74 -43 20 -80 36 -82 36 -2 0 -37 15 -77 34 -40 19 -134 61
-208 94 -74 33 -162 72 -195 87 -33 15 -62 28 -65 28 -3 0 -21 8 -40 18 -42
23 -45 23 -64 4z"/>
</g>
</svg>
