<svg width="28" height="21" viewBox="0 0 28 21" fill="none" xmlns="http://www.w3.org/2000/svg">
<path d="M22.531 12.693C23.135 12.693 23.625 13.183 23.625 13.787V15.1C23.625 15.704 23.135 16.194 22.531 16.194H20.015C19.411 16.194 18.921 15.704 18.921 15.1V13.788C18.921 13.184 19.411 12.694 20.015 12.694L22.531 12.693ZM25.812 10.724V7.44302H2.188V16.186C2.18853 16.7662 2.41922 17.3224 2.82944 17.7326C3.23965 18.1428 3.79587 18.3735 4.376 18.374H23.626C24.2061 18.3735 24.7624 18.1428 25.1726 17.7326C25.5828 17.3224 25.8135 16.7662 25.814 16.186C25.814 15.582 26.304 15.092 26.908 15.092C27.512 15.092 28 15.582 28 16.186C27.9987 17.3459 27.5373 18.458 26.7171 19.2782C25.8969 20.0983 24.7849 20.5597 23.625 20.561H4.375C3.21508 20.5597 2.10305 20.0983 1.28287 19.2782C0.462685 18.458 0.00132335 17.3459 0 16.186L0 4.37402C0.00132335 3.21411 0.462685 2.10208 1.28287 1.28189C2.10305 0.461708 3.21508 0.000346788 4.375 -0.000976562H23.625C24.7849 0.000346788 25.8969 0.461708 26.7171 1.28189C27.5373 2.10208 27.9987 3.21411 28 4.37402V10.724C28 11.328 27.51 11.818 26.906 11.818C26.302 11.818 25.812 11.328 25.812 10.724ZM25.812 5.25502V4.37302C25.8112 3.79324 25.5805 3.23743 25.1706 2.82746C24.7606 2.41749 24.2048 2.18682 23.625 2.18602H4.375C3.79504 2.18682 3.23908 2.41763 2.82908 2.82781C2.41908 3.238 2.18853 3.79407 2.188 4.37402V5.25602H25.813L25.812 5.25502ZM5.469 9.63002C4.865 9.63002 4.375 10.12 4.375 10.724C4.375 11.328 4.865 11.818 5.469 11.818H14.492C15.096 11.818 15.586 11.328 15.586 10.724C15.586 10.12 15.096 9.63002 14.492 9.63002H5.469Z" fill="url(#paint0_linear_20005128_12741)"/>
<defs>
<linearGradient id="paint0_linear_20005128_12741" x1="0" y1="10.329" x2="28" y2="10.329" gradientUnits="userSpaceOnUse">
<stop stop-color="#6366F1"/>
<stop offset="0.5" stop-color="#8B5CF6"/>
<stop offset="1" stop-color="#D946EF"/>
</linearGradient>
</defs>
</svg>
